<svg xmlns="http://www.w3.org/2000/svg" viewBox="0 0 64 64"><circle cx="58.5" cy="50.5" r="2.5" fill="none" stroke="#000" stroke-linecap="round" stroke-linejoin="round" stroke-width="2"/><circle cx="7.5" cy="48.5" r="1.132"/><path fill="none" stroke="#000" stroke-linecap="round" stroke-linejoin="round" stroke-width="2" d="M36 40.408c-.007.642-.021 1.822-.027 1.9L39.544 44m-15.088 0 3.575-1.7c-.006-.074-.02-1.254-.027-1.9"/><path fill="none" stroke="#000" stroke-linecap="round" stroke-linejoin="round" stroke-width="2" d="M8 5h48v39H8z"/><path fill="none" stroke="#000" stroke-linecap="round" stroke-linejoin="round" stroke-width="2" d="M44.9 23.417a3.166 3.166 0 0 1 .033.508A5.692 5.692 0 0 0 45 25.5a2.5 2.5 0 0 1 2.48 2.818 2.537 2.537 0 0 1-1.215 1.793 2.282 2.282 0 0 1-2.093.238 13.9 13.9 0 0 1-9.293 10.269l-.444.144a6.978 6.978 0 0 1-4.285.046 13.9 13.9 0 0 1-9.357-10.449 2.225 2.225 0 0 1-2.108-.3 2.56 2.56 0 0 1-1.183-1.97A2.5 2.5 0 0 1 20 25.5l.094-2.281"/><circle cx="37.5" cy="29.5" r="1"/><circle cx="27.5" cy="29.5" r="1"/><path fill="none" stroke="#000" stroke-linecap="round" stroke-linejoin="round" stroke-width="2" d="M45 17c0-11-25-13-24.945 1.835 0 1.441.036 3 .022 4.086a9.359 9.359 0 0 0 6.972-2.5c2.91 5.651 11.02 7.967 17.951 2.554ZM49 8h4v4M15 8h-4v4M49 41h4v-4M15 41h-4v-4M17 47h30v14H17z"/><path fill="none" stroke="#000" stroke-linecap="round" stroke-linejoin="round" stroke-width="2" d="M23 50h4a2 2 0 0 1 2 2v0a2 2 0 0 1-2 2h-4 0v-4h0zm0 4h4a2 2 0 0 1 2 2v0a2 2 0 0 1-2 2h-4 0v-4h0zM41 50l-1 8h-1l-2-5-2 5h-1l-1-8"/></svg>